<?xml version="1.0" encoding="UTF-8"?>
<svg xmlns="http://www.w3.org/2000/svg" xmlns:xlink="http://www.w3.org/1999/xlink" width="65px" height="65px" viewBox="0 0 65 65" version="1.1">
<g id="surface1">
<path style=" stroke:none;fill-rule:nonzero;fill:rgb(0%,0%,0%);fill-opacity:1;" d="M 33.214844 7.117188 C 29.671875 7.996094 26.195312 9.878906 23.5625 12.382812 C 21.578125 14.265625 21.027344 14.625 19.175781 15.078125 C 14.007812 16.378906 9.652344 19.46875 7.898438 23.042969 C 7.117188 24.636719 6.988281 25.253906 6.988281 27.789062 C 6.988281 30.386719 7.085938 30.875 7.863281 32.207031 C 9.457031 34.90625 12.21875 36.789062 16.121094 37.863281 C 18.65625 38.546875 25.316406 38.902344 26.261719 38.382812 C 26.617188 38.1875 27.59375 36.824219 28.371094 35.328125 C 29.152344 33.863281 31.816406 28.957031 34.253906 24.441406 C 36.691406 19.921875 38.675781 16.183594 38.675781 16.085938 C 38.675781 15.988281 37.082031 15.925781 35.132812 15.925781 L 31.589844 15.925781 L 29.640625 19.402344 C 28.566406 21.351562 26.128906 25.773438 24.210938 29.25 C 22.261719 32.726562 20.671875 35.621094 20.671875 35.652344 C 20.539062 35.816406 16.996094 34.839844 15.890625 34.386719 C 11.925781 32.664062 10.109375 28.601562 11.375 24.210938 C 12.316406 20.898438 16.574219 18.003906 21.515625 17.355469 C 23.074219 17.160156 23.433594 16.933594 25.285156 15.046875 C 29.414062 10.824219 33.148438 9.230469 38.089844 9.488281 C 39.746094 9.585938 41.210938 9.847656 41.859375 10.203125 C 44.785156 11.734375 47.222656 15.242188 47.644531 18.589844 C 47.871094 20.246094 48.132812 20.605469 49.433594 20.898438 C 50.765625 21.222656 53.332031 23.691406 54.144531 25.511719 C 55.25 27.820312 55.21875 30.160156 54.078125 31.523438 C 53.234375 32.5 49.238281 34.773438 48.296875 34.773438 C 48.035156 34.773438 46.3125 31.949219 44.136719 27.949219 C 42.121094 24.210938 40.363281 21.125 40.265625 21.125 C 40.171875 21.125 39.746094 21.871094 39.324219 22.78125 C 38.738281 24.015625 38.640625 24.539062 38.871094 24.960938 C 40.203125 27.136719 44.914062 35.78125 44.816406 35.878906 C 44.6875 36.011719 34.773438 37.636719 32.273438 37.925781 C 31.523438 38.023438 30.84375 38.316406 30.746094 38.546875 C 30.613281 38.902344 32.046875 38.933594 39.097656 38.804688 C 48.523438 38.609375 51.058594 38.351562 53.460938 37.246094 C 57.234375 35.554688 58.953125 32.792969 58.988281 28.601562 C 58.988281 26.648438 58.824219 25.804688 58.140625 24.375 C 57.039062 22.003906 55.511719 20.3125 53.429688 19.140625 C 51.96875 18.296875 51.738281 18.003906 51.546875 16.964844 C 51.285156 15.175781 49.5625 11.960938 48.132812 10.464844 C 44.65625 6.890625 39.195312 5.65625 33.214844 7.117188 Z M 33.214844 7.117188 "/>
<path style=" stroke:none;fill-rule:nonzero;fill:rgb(0%,0%,0%);fill-opacity:1;" d="M 12.511719 44.589844 C 12.414062 44.851562 12.351562 46.3125 12.414062 47.808594 L 12.511719 50.539062 L 14.039062 50.503906 C 15.761719 50.503906 16.476562 50.015625 17.128906 48.488281 C 17.484375 47.613281 17.484375 47.289062 17.128906 46.378906 C 16.511719 44.949219 15.859375 44.460938 14.136719 44.265625 C 13.066406 44.167969 12.640625 44.234375 12.511719 44.589844 Z M 15.796875 46.019531 C 16.445312 46.636719 16.574219 47.027344 16.445312 47.710938 C 16.183594 48.816406 15.113281 49.726562 14.105469 49.726562 C 13.359375 49.726562 13.324219 49.628906 13.324219 47.449219 C 13.324219 45.238281 13.359375 45.175781 14.136719 45.175781 C 14.59375 45.175781 15.339844 45.53125 15.796875 46.019531 Z M 15.796875 46.019531 "/>
<path style=" stroke:none;fill-rule:nonzero;fill:rgb(0%,0%,0%);fill-opacity:1;" d="M 34.449219 47.15625 C 33.734375 49.171875 33.507812 50.210938 33.734375 50.441406 C 33.960938 50.667969 34.191406 50.539062 34.417969 50.082031 C 34.9375 49.140625 36.886719 49.109375 37.148438 50.050781 C 37.34375 50.765625 38.023438 50.960938 38.023438 50.277344 C 38.023438 49.464844 36.203125 44.394531 35.847656 44.296875 C 35.683594 44.234375 35.035156 45.5 34.449219 47.15625 Z M 36.367188 48.003906 C 36.398438 48.230469 36.109375 48.425781 35.75 48.425781 C 35.003906 48.425781 35.003906 48.425781 35.457031 47.222656 C 35.78125 46.378906 35.847656 46.34375 36.074219 46.960938 C 36.238281 47.320312 36.367188 47.808594 36.367188 48.003906 Z M 36.367188 48.003906 "/>
<path style=" stroke:none;fill-rule:nonzero;fill:rgb(0%,0%,0%);fill-opacity:1;" d="M 18.492188 46.832031 C 16.996094 48.328125 18.71875 51.21875 20.703125 50.503906 C 22.066406 50.050781 22.101562 49.300781 20.734375 49.5625 C 19.921875 49.726562 19.5 49.628906 19.207031 49.269531 C 18.816406 48.816406 18.980469 48.75 20.605469 48.75 C 22.199219 48.75 22.425781 48.683594 22.425781 48.101562 C 22.425781 46.378906 19.792969 45.53125 18.492188 46.832031 Z M 21.289062 47.449219 C 21.417969 47.644531 20.960938 47.773438 20.148438 47.773438 C 19.335938 47.773438 18.882812 47.644531 19.011719 47.449219 C 19.109375 47.253906 19.628906 47.125 20.148438 47.125 C 20.671875 47.125 21.191406 47.253906 21.289062 47.449219 Z M 21.289062 47.449219 "/>
<path style=" stroke:none;fill-rule:nonzero;fill:rgb(0%,0%,0%);fill-opacity:1;" d="M 23.789062 46.671875 C 23.074219 47.15625 22.816406 48.816406 23.335938 49.59375 C 23.789062 50.277344 24.925781 50.667969 26.195312 50.570312 L 27.460938 50.503906 L 27.429688 48.976562 C 27.398438 46.507812 25.640625 45.371094 23.789062 46.671875 Z M 26.324219 47.613281 C 26.648438 48.003906 26.648438 48.296875 26.390625 48.914062 C 25.96875 49.855469 24.992188 49.984375 24.246094 49.203125 C 23.628906 48.621094 23.628906 48.554688 24.050781 47.742188 C 24.472656 46.996094 25.738281 46.929688 26.324219 47.613281 Z M 26.324219 47.613281 "/>
<path style=" stroke:none;fill-rule:nonzero;fill:rgb(0%,0%,0%);fill-opacity:1;" d="M 28.601562 47.027344 C 28.113281 47.675781 27.949219 48.261719 28.015625 49.203125 C 28.144531 50.992188 28.730469 50.894531 28.925781 49.074219 C 29.054688 47.871094 29.25 47.546875 29.996094 47.191406 C 30.484375 46.960938 30.808594 46.636719 30.710938 46.441406 C 30.355469 45.859375 29.28125 46.148438 28.601562 47.027344 Z M 28.601562 47.027344 "/>
<path style=" stroke:none;fill-rule:nonzero;fill:rgb(0%,0%,0%);fill-opacity:1;" d="M 38.738281 46.539062 C 38.835938 46.765625 39.292969 46.996094 39.746094 47.058594 C 40.234375 47.125 40.625 47.253906 40.625 47.351562 C 40.625 47.449219 40.171875 48.101562 39.617188 48.78125 C 39.066406 49.464844 38.707031 50.179688 38.835938 50.375 C 38.933594 50.539062 39.746094 50.699219 40.65625 50.699219 C 41.859375 50.699219 42.25 50.570312 42.25 50.210938 C 42.25 49.886719 41.925781 49.726562 41.273438 49.726562 C 40.753906 49.726562 40.300781 49.628906 40.300781 49.53125 C 40.300781 49.433594 40.753906 48.78125 41.273438 48.101562 C 41.828125 47.417969 42.25 46.703125 42.25 46.507812 C 42.25 46.28125 41.535156 46.148438 40.429688 46.148438 C 39.128906 46.148438 38.640625 46.28125 38.738281 46.539062 Z M 38.738281 46.539062 "/>
<path style=" stroke:none;fill-rule:nonzero;fill:rgb(0%,0%,0%);fill-opacity:1;" d="M 42.898438 47.90625 C 42.898438 49.367188 43.03125 49.789062 43.613281 50.179688 C 45.304688 51.351562 46.476562 50.375 46.476562 47.808594 C 46.476562 45.597656 45.726562 45.695312 45.5 47.96875 C 45.371094 49.300781 45.238281 49.5625 44.6875 49.5625 C 44.136719 49.5625 44.039062 49.300781 43.941406 47.839844 C 43.875 46.636719 43.710938 46.148438 43.355469 46.148438 C 43.03125 46.148438 42.898438 46.605469 42.898438 47.90625 Z M 42.898438 47.90625 "/>
<path style=" stroke:none;fill-rule:nonzero;fill:rgb(0%,0%,0%);fill-opacity:1;" d="M 47.773438 46.800781 C 47.289062 47.289062 47.125 47.871094 47.125 49.109375 C 47.125 51.253906 47.90625 51.121094 48.035156 48.945312 C 48.132812 47.675781 48.261719 47.386719 48.945312 47.125 C 49.367188 46.960938 49.726562 46.671875 49.726562 46.476562 C 49.726562 45.921875 48.457031 46.117188 47.773438 46.800781 Z M 47.773438 46.800781 "/>
<path style=" stroke:none;fill-rule:nonzero;fill:rgb(0%,0%,0%);fill-opacity:1;" d="M 50.570312 46.671875 C 48.816406 48.390625 50.40625 51.15625 52.84375 50.570312 C 53.265625 50.441406 53.625 50.148438 53.625 49.855469 C 53.625 49.464844 53.398438 49.398438 52.550781 49.5625 C 51.773438 49.726562 51.351562 49.628906 51.058594 49.269531 C 50.667969 48.816406 50.828125 48.75 52.453125 48.75 C 54.046875 48.75 54.273438 48.683594 54.273438 48.101562 C 54.273438 46.507812 51.707031 45.53125 50.570312 46.671875 Z M 53.136719 47.449219 C 53.265625 47.644531 52.878906 47.773438 52.164062 47.773438 C 51.449219 47.773438 51.058594 47.644531 51.1875 47.449219 C 51.285156 47.253906 51.738281 47.125 52.164062 47.125 C 52.585938 47.125 53.039062 47.253906 53.136719 47.449219 Z M 53.136719 47.449219 "/>
</g>
</svg>
